<?xml version="1.0" encoding="UTF-8"?>
<svg xmlns="http://www.w3.org/2000/svg" width="120mm" height="120mm" viewBox="-4 -6 118 118">
  <style>.ring{fill:none;stroke:#ED5A00;stroke-width:2.4}.cells{fill:#ED5A00}</style>
  <g transform="translate(0 0) scale(1)"><circle class="ring" cx="55" cy="51" r="53"/><g class="cells"><circle cx="28" cy="14" r="2"/><circle cx="39" cy="10" r="2"/><circle cx="50" cy="15" r="2.8"/><circle cx="60" cy="13" r="2.8"/><circle cx="70" cy="18" r="2.8"/><circle cx="77" cy="7" r="4"/><circle cx="80" cy="24" r="2.8"/><circle cx="87" cy="29" r="2"/><circle cx="94" cy="39" r="2.8"/><circle cx="98" cy="50" r="2.8"/><circle cx="94" cy="60" r="4"/><circle cx="89" cy="68" r="2"/><circle cx="83" cy="76" r="4"/><circle cx="76" cy="82" r="4"/><circle cx="67" cy="78" r="4"/><circle cx="60" cy="82" r="4"/><circle cx="53" cy="77" r="4"/><circle cx="44" cy="74" r="4"/><circle cx="37" cy="70" r="2"/><circle cx="29" cy="74" r="2.8"/><circle cx="21" cy="67" r="2.8"/><circle cx="15" cy="61" r="4"/><circle cx="11" cy="52" r="2"/><circle cx="8" cy="43" r="2.8"/><circle cx="11" cy="34" r="4"/><circle cx="17" cy="27" r="4"/><circle cx="22" cy="20" r="2.8"/><circle cx="41" cy="24" r="4"/><circle cx="52" cy="26" r="2.8"/><circle cx="63" cy="27" r="4"/><circle cx="23" cy="36" r="4"/><circle cx="35" cy="35" r="4"/><circle cx="47" cy="37" r="4"/><circle cx="59" cy="37" r="2"/><circle cx="71" cy="39" r="2"/><circle cx="82" cy="39" r="2.8"/><circle cx="20" cy="48" r="4"/><circle cx="32" cy="47" r="4"/><circle cx="44" cy="49" r="4"/><circle cx="56" cy="49" r="4"/><circle cx="68" cy="50" r="2.8"/><circle cx="80" cy="50" r="2"/><circle cx="37" cy="58" r="2.8"/><circle cx="49" cy="60" r="4"/><circle cx="61" cy="60" r="2.8"/><circle cx="73" cy="61" r="2"/><circle cx="83" cy="59" r="2.8"/><circle cx="73" cy="94" r="2"/><circle cx="78" cy="99" r="2"/></g></g>
</svg>
